<!-- Generator: Adobe Illustrator 17.0.0, SVG Export Plug-In  -->
<svg version="1.1"
	 xmlns="http://www.w3.org/2000/svg" xmlns:xlink="http://www.w3.org/1999/xlink" xmlns:a="http://ns.adobe.com/AdobeSVGViewerExtensions/3.0/"
	 x="0px" y="0px" width="502.062px" height="502.062px" viewBox="0 0 502.062 502.062" enable-background="new 0 0 502.062 502.062"
	 xml:space="preserve">
<defs>
</defs>
<circle fill="#89BD2F" cx="251.031" cy="251.031" r="251.031"/>
<path fill="#FFFFFF" d="M290.908,204.098c-1.73-4.668,46.487-47.731,18.359-82.624c-6.586-8.166-28.908,39.069-60.613,60.457
	c-17.491,11.799-58.189,36.913-58.189,50.787v89.833c0,16.705,64.531,34.376,113.588,34.376c17.96,0,44.007-112.618,44.007-130.509
	C348.06,208.461,292.639,208.767,290.908,204.098z M177.333,205.347c-8.636,0-39.399,5.253-39.399,40.997v63.667
	c0,35.746,30.762,39.686,39.399,39.686c8.632,0-13.133-7.521-13.133-29.672V236.33C164.2,213.106,185.965,205.347,177.333,205.347z"
	/>
</svg>
