<!-- Generator: Adobe Illustrator 17.0.0, SVG Export Plug-In  -->
<svg version="1.1"
	 xmlns="http://www.w3.org/2000/svg" xmlns:xlink="http://www.w3.org/1999/xlink" xmlns:a="http://ns.adobe.com/AdobeSVGViewerExtensions/3.0/"
	 x="0px" y="0px" width="502.062px" height="502.062px" viewBox="0 0 502.062 502.062" enable-background="new 0 0 502.062 502.062"
	 xml:space="preserve">
<defs>
</defs>
<circle fill="#3DB3E2" cx="251.031" cy="251.031" r="251.031"/>
<path fill="#FFFFFF" d="M363.856,156.309H134.931c-15.739,0-28.616,12.877-28.616,28.616v143.078
	c0,15.739,12.877,28.616,28.616,28.616h228.925c15.739,0,28.616-12.877,28.616-28.616V184.924
	C392.471,169.186,379.594,156.309,363.856,156.309z M363.856,328.002H134.931v-85.847h228.925V328.002z M363.856,199.232H134.931
	v-14.308h228.925V199.232z M163.546,272.202v8.585h8.585v-8.585H163.546z M215.054,289.371v8.585h17.169v-8.585h8.585v-8.585h8.585
	v-8.585h-17.169v8.585h-8.585v8.585H215.054z M249.393,297.956v-8.585h-8.585v8.585H249.393z M206.47,297.956v-8.585H189.3v8.585
	H206.47z M215.054,280.787h8.585v-8.585H206.47v17.169h8.585V280.787z M180.716,289.371h8.585v-8.585h8.585v-8.585h-17.169v8.585
	h-8.585v8.585h-8.585v8.585h17.169V289.371z"/>
</svg>
