<!-- Generator: Adobe Illustrator 17.0.0, SVG Export Plug-In  -->
<svg version="1.1"
	 xmlns="http://www.w3.org/2000/svg" xmlns:xlink="http://www.w3.org/1999/xlink" xmlns:a="http://ns.adobe.com/AdobeSVGViewerExtensions/3.0/"
	 x="0px" y="0px" width="305.552px" height="226px" viewBox="0 0 305.552 226" enable-background="new 0 0 305.552 226"
	 xml:space="preserve">
<defs>
</defs>
<g>
	<g>
		<defs>
			<path id="SVGID_1_" d="M182.757,201.905C163.547,216.998,139.325,226,113,226C50.592,226,0,175.408,0,113
				C0,50.592,50.592,0,113,0c49.205,0,91.064,31.449,106.574,75.344c-32.834,9.341-56.854,39.258-56.854,74.72
				C162.72,169.981,170.297,188.149,182.757,201.905L182.757,201.905L182.757,201.905z M79.685,121.92
				c8.328,7.994,18.286,11.991,29.873,11.991c6.88,0,10.32-1.658,10.32-4.974c0-1.59-1.788-2.805-5.364-3.645
				c-3.576-0.84-7.887-1.726-12.933-2.657c-5.047-0.931-10.093-2.282-15.14-4.054c-5.047-1.771-9.358-4.883-12.934-9.334
				c-3.576-4.451-5.363-10.083-5.363-16.896c0-7.449,2.716-14.035,8.147-19.758c5.431-5.723,13.013-9.22,22.744-10.492V48.816
				h17.788v13.422c11.406,1.59,21.137,5.678,29.194,12.264l-15.004,19.962c-8.057-6.132-17.154-9.198-27.293-9.198
				c-4.707,0-7.061,1.385-7.061,4.156c0,1.499,1.754,2.714,5.262,3.645c3.508,0.931,7.796,1.908,12.866,2.93
				c5.069,1.022,10.15,2.419,15.242,4.19c5.092,1.771,9.403,4.792,12.934,9.061c3.53,4.27,5.296,9.606,5.296,16.011
				c0,8.948-2.761,16.17-8.283,21.665c-5.522,5.496-13.239,8.88-23.151,10.151v12.877H99.034v-12.877
				c-13.714-1.317-25.03-6.064-33.946-14.239L79.685,121.92L79.685,121.92z M79.685,121.92"/>
		</defs>
		<use xlink:href="#SVGID_1_"  overflow="visible" fill-rule="evenodd" clip-rule="evenodd" fill="#FFFFFF"/>
		<clipPath id="SVGID_2_">
			<use xlink:href="#SVGID_1_"  overflow="visible"/>
		</clipPath>
	</g>
	<g>
		<defs>
			<path id="SVGID_3_" d="M240.464,213.344c35.947,0,65.088-28.736,65.088-64.184c0-35.448-29.141-64.184-65.088-64.184
				c-35.947,0-65.088,28.736-65.088,64.184C175.376,184.608,204.517,213.344,240.464,213.344L240.464,213.344z M226.701,156.083
				c4.526,4.415,9.938,6.622,16.235,6.622c3.739,0,5.609-0.916,5.609-2.747c0-0.878-0.972-1.549-2.915-2.013
				c-1.943-0.464-4.286-0.953-7.029-1.467c-2.743-0.514-5.486-1.26-8.228-2.239c-2.743-0.978-5.086-2.696-7.029-5.155
				c-1.943-2.458-2.915-5.568-2.915-9.331c0-4.114,1.476-7.751,4.428-10.911c2.952-3.161,7.072-5.092,12.361-5.794v-7.337h9.667
				v7.412c6.199,0.878,11.488,3.135,15.866,6.772l-8.154,11.024c-4.379-3.386-9.323-5.079-14.833-5.079
				c-2.558,0-3.837,0.765-3.837,2.295c0,0.828,0.953,1.499,2.86,2.013c1.906,0.514,4.237,1.053,6.992,1.618
				c2.755,0.564,5.516,1.336,8.284,2.314c2.767,0.978,5.11,2.646,7.029,5.004c1.919,2.358,2.878,5.305,2.878,8.842
				c0,4.941-1.5,8.929-4.502,11.965c-3.001,3.035-7.195,4.904-12.582,5.606v7.111h-9.667v-7.111
				c-7.453-0.727-13.603-3.349-18.449-7.863L226.701,156.083L226.701,156.083z M226.701,156.083"/>
		</defs>
		<use xlink:href="#SVGID_3_"  overflow="visible" fill-rule="evenodd" clip-rule="evenodd" fill="#FFFFFF"/>
		<clipPath id="SVGID_4_">
			<use xlink:href="#SVGID_3_"  overflow="visible"/>
		</clipPath>
	</g>
</g>
</svg>
