<?xml version="1.0" encoding="utf-8"?> <!-- Generator: IcoMoon.io --> <!DOCTYPE svg PUBLIC "-//W3C//DTD SVG 1.1//EN" "http://www.w3.org/Graphics/SVG/1.1/DTD/svg11.dtd"> <svg width="16" height="16.001001358032227" viewBox="0 0 16 16.001001358032227" xmlns="http://www.w3.org/2000/svg" xmlns:xlink="http://www.w3.org/1999/xlink" fill="#000000"><g><path d="M 9.14,15.859c 0.098,0.098, 0.227,0.147, 0.355,0.146c 0.129,0, 0.257-0.048, 0.355-0.146l 1.926-1.926 c 0.195-0.195, 0.195-0.512,0-0.707s-0.512-0.195-0.707,0L 10,14.295l0-8.79 c0-0.276-0.224-0.5-0.5-0.5S 9,5.229, 9,5.505l0,8.8 l-1.152-1.152c-0.195-0.195-0.512-0.195-0.707,0c-0.195,0.195-0.195,0.512,0,0.707L 9.14,15.859zM 6.5,11.005c 0.276,0, 0.5-0.224, 0.5-0.5l0-8.8 l 1.152,1.152c 0.195,0.195, 0.512,0.195, 0.707,0 c 0.195-0.195, 0.195-0.512,0-0.707L 6.86,0.151C 6.762,0.053, 6.634,0.005, 6.505,0.005c-0.129,0-0.257,0.048-0.355,0.146L 4.224,2.077 c-0.195,0.195-0.195,0.512,0,0.707c 0.195,0.195, 0.512,0.195, 0.707,0L 6,1.715l0,8.79 C 6,10.781, 6.224,11.005, 6.5,11.005z"></path></g></svg>