<!-- Generator: Adobe Illustrator 17.0.0, SVG Export Plug-In  -->
<svg version="1.1"
	 xmlns="http://www.w3.org/2000/svg" xmlns:xlink="http://www.w3.org/1999/xlink" xmlns:a="http://ns.adobe.com/AdobeSVGViewerExtensions/3.0/"
	 x="0px" y="0px" width="360.246px" height="79.421px" viewBox="0 0 360.246 79.421" enable-background="new 0 0 360.246 79.421"
	 xml:space="preserve">
<defs>
</defs>
<g>
	<path fill="#FFFFFF" d="M57.64,56.541c0,12.21-8.14,22.88-25.52,22.88c-12.76,0-25.19-5.83-32.12-10.89l9.02-14.74
		c5.72,3.63,15.95,8.14,21.67,8.14c3.19,0,5.72-1.43,5.72-4.399c0-5.391-8.91-6.82-19.58-12.65c-7.26-4.07-15.51-10.34-15.51-22.33
		C1.32,10.23,9.68,0,26.95,0C37.73,0,48.51,4.07,56.1,8.36l-9.13,15.07c-5.17-2.75-13.42-5.94-18.48-5.94
		c-3.3,0-5.94,1.32-5.94,4.291c0,5.39,9.35,6.93,19.36,12.319C48.73,37.951,57.64,44.001,57.64,56.541z"/>
	<path fill="#FFFFFF" d="M98.229,46.531H80.41v31.68h-20.13v-77h20.13v27.83h17.82V1.211h20.02v77h-20.02V46.531z"/>
	<path fill="#FFFFFF" d="M188.099,39.711c0,22.33-9.021,39.71-33.22,39.71c-24.2,0-33.22-17.38-33.22-39.71S130.678,0,154.878,0
		C179.078,0,188.099,17.381,188.099,39.711z M167.528,39.711c0-12.76-3.08-21.78-12.65-21.78c-9.57,0-12.65,9.021-12.65,21.78
		c0,12.869,3.08,21.779,12.65,21.779C164.448,61.49,167.528,52.58,167.528,39.711z"/>
	<path fill="#FFFFFF" d="M219.007,52.691h-7.479v25.52h-20.13v-77h27.609c21.23,0,29.591,9.68,29.591,25.85
		C248.598,43.121,240.237,52.691,219.007,52.691z M218.348,18.591h-6.82v16.94h6.82c5.72,0,10.01-1.541,10.01-8.471
		S224.067,18.591,218.348,18.591z"/>
	<path fill="#FFFFFF" d="M278.516,52.691h-7.479v25.52h-20.13v-77h27.609c21.23,0,29.591,9.68,29.591,25.85
		C308.106,43.121,299.746,52.691,278.516,52.691z M277.856,18.591h-6.82v16.94h6.82c5.72,0,10.01-1.541,10.01-8.471
		S283.576,18.591,277.856,18.591z"/>
	<path fill="#FFFFFF" d="M310.416,78.211v-77h49.39v17.82h-29.26v11.989h23.65V48.4h-23.65v11.99h29.7v17.82H310.416z"/>
</g>
</svg>
