<!-- Generator: Adobe Illustrator 17.0.0, SVG Export Plug-In  -->
<svg version="1.1"
	 xmlns="http://www.w3.org/2000/svg" xmlns:xlink="http://www.w3.org/1999/xlink" xmlns:a="http://ns.adobe.com/AdobeSVGViewerExtensions/3.0/"
	 x="0px" y="0px" width="502.062px" height="502.062px" viewBox="0 0 502.062 502.062" enable-background="new 0 0 502.062 502.062"
	 xml:space="preserve">
<defs>
</defs>
<circle fill="#909091" cx="251.031" cy="251.031" r="251.031"/>
<path fill="#FFFFFF" d="M402.991,237.719c-6.284-6.68-36.621-36.416-50.491-49.992c-4.249-4.15-10.342-6.795-16.707-6.795
	c-6.366,0-82.509,0-82.509,0s-76.144,0-82.509,0c-6.365,0-12.458,2.644-16.707,6.795c-13.871,13.576-44.207,43.312-50.491,49.992
	c-7.84,8.336-12.142,14.99-10.094,23.232l8.992,49.276c2.041,8.239,11.071,14.983,20.064,14.983H384.03
	c8.992,0,18.022-6.744,20.064-14.983l8.992-49.276C415.134,252.709,410.832,246.055,402.991,237.719z M318.175,248.402
	c-1.628,0-3.106,0.825-3.839,2.129l-13.097,32.624h-95.91l-13.097-32.624c-0.733-1.304-2.21-2.129-3.839-2.129h-56.819l32.71-37.011
	h177.999l32.71,37.011H318.175z"/>
</svg>
