<!-- Generator: Adobe Illustrator 17.0.0, SVG Export Plug-In  -->
<svg version="1.1"
	 xmlns="http://www.w3.org/2000/svg" xmlns:xlink="http://www.w3.org/1999/xlink" xmlns:a="http://ns.adobe.com/AdobeSVGViewerExtensions/3.0/"
	 x="0px" y="0px" width="502.062px" height="502.062px" viewBox="0 0 502.062 502.062" enable-background="new 0 0 502.062 502.062"
	 xml:space="preserve">
<defs>
</defs>
<circle fill="#E6311C" cx="251.031" cy="251.031" r="251.031"/>
<path fill="#FFFFFF" d="M202.229,293.308c1.851,4.994-49.731,51.061-19.64,88.389c7.045,8.736,30.925-41.795,64.842-64.676
	c18.711-12.622,62.249-39.489,62.249-54.331v-96.101c0-17.87-69.033-36.775-121.513-36.775c-19.213,0-47.077,120.476-47.077,139.616
	C141.089,288.64,200.377,288.312,202.229,293.308z M323.729,291.971c9.239,0,42.148-5.62,42.148-43.857v-68.11
	c0-38.24-32.909-42.455-42.148-42.455c-9.236,0,14.049,8.045,14.049,31.742v89.535C337.778,283.671,314.492,291.971,323.729,291.971
	z"/>
</svg>
